Coordinates
version=1
nRows=8
nColumns=36
inDegrees=yes

Units are S.I. units (second, meters, Newtons, ...)
If the header above contains a line with 'inDegrees', this indicates whether rotational values are in degrees (yes) or radians (no).

endheader
time	pelvis_tilt	pelvis_list	pelvis_rotation	pelvis_tx	pelvis_ty	pelvis_tz	hip_flexion_r	hip_adduction_r	hip_rotation_r	knee_angle_r	knee_angle_r_beta	ankle_angle_r	subtalar_angle_r	mtp_angle_r	hip_flexion_l	hip_adduction_l	hip_rotation_l	knee_angle_l	knee_angle_l_beta	ankle_angle_l	subtalar_angle_l	mtp_angle_l	lumbar_extension	lumbar_bending	lumbar_rotation	arm_flex_r	arm_add_r	arm_rot_r	elbow_flex_r	pro_sup_r	arm_flex_l	arm_add_l	arm_rot_l	elbow_flex_l	pro_sup_l
      2.00000000	     -8.69986919	      0.62403636	      3.32277923	      0.24912448	      0.91216993	     -0.00158666	      7.53099450	     -6.69210329	     -7.78293518	      2.39698129	      0.04183522	      0.97766207	     -8.47875645	     -7.49999987	      6.42067658	     -5.39495501	    -17.18669597	      1.09767679	      0.01915807	      1.87908095	      4.77450488	     -7.49999987	      0.64538206	      1.32489341	     -0.06122377	    -16.45074513	    -11.55022458	    -13.13375584	    132.38075067	     79.57634666	    164.07066148	   -171.16990992	   -182.00654766	    120.68582347	     82.86021012
      2.00166670	     -8.73908809	      0.64559833	      3.50966150	      0.24966130	      0.91314305	     -0.00351002	      7.49928958	     -6.83127984	     -8.00981948	      2.34621308	      0.04094914	      0.95170423	     -8.18081434	     -7.49999987	      6.49301026	     -5.26650940	    -17.18885217	      1.05796527	      0.01846498	      1.80387676	      4.84225617	     -7.49999987	      0.80073677	      1.38402266	      0.09857257	    -16.85169919	    -11.33785697	    -13.93785306	    132.22825546	     79.54605365	    164.39018580	   -171.17859018	   -182.03971052	    119.42871914	     82.94833798
      2.00333330	     -8.81312714	      0.66597594	      3.53662918	      0.24826064	      0.91192830	     -0.00292259	      7.61913434	     -6.91457190	     -7.99128257	      2.35338403	      0.04107430	      0.79247511	     -8.37074796	     -7.49999987	      6.56940753	     -5.16866222	    -17.30049894	      0.99380681	      0.01734520	      1.82113425	      4.94393458	     -7.49999987	      0.92355437	      1.41025661	      0.08203682	    -17.00855932	    -11.26082867	    -13.93146949	    132.11197226	     77.93657178	    164.67428929	   -171.12846585	   -182.16744888	    118.48661223	     80.84941979
      2.00500000	     -8.85348182	      0.66451911	      3.65650717	      0.24898611	      0.91220545	     -0.00191323	      7.61761456	     -6.94739729	     -8.15569678	      2.30475833	      0.04022562	      0.74464083	     -8.25187750	     -7.49999987	      6.61650089	     -5.12865903	    -17.28124516	      0.94938017	      0.01656981	      1.75662254	      4.90410931	     -7.49999987	      1.01281200	      1.47545630	      0.43728182	    -17.61713260	    -10.93573883	    -14.58898068	    132.12526285	     79.20480471	    165.17262557	   -171.02002682	   -181.78942461	    117.34777845	     82.04150212
      2.00666670	     -8.88897463	      0.66898642	      3.72863805	      0.24792008	      0.91361501	     -0.00313482	      7.62080575	     -6.98123279	     -8.21897700	      2.21944631	      0.03873665	      0.61382319	     -8.23799241	     -7.49999987	      6.66718508	     -5.08608504	    -17.23007938	      0.90830840	      0.01585297	      1.71827166	      4.88364218	     -7.49999987	      1.06811161	      1.48150125	      0.40388054	    -17.69577184	    -11.01076393	    -14.47048313	    131.95577970	     76.13580849	    165.22910615	   -171.03448632	   -181.67406528	    116.84687172	     78.25504964
      2.00833330	     -8.88323286	      0.65906693	      3.77842342	      0.24942287	      0.91652100	     -0.00326391	      7.58863228	     -6.98874508	     -8.36901072	      2.17958462	      0.03804093	      0.66855125	     -8.01633602	     -7.49999987	      6.65559482	     -5.06238269	    -17.26544391	      0.86771744	      0.01514453	      1.55478354	      4.94859267	     -7.49999987	      1.05225079	      1.49172419	      0.49845337	    -17.90088061	    -10.84817430	    -14.92327637	    131.63864794	     79.09440244	    165.34863621	   -171.23994583	   -181.76024912	    115.96538669	     81.73938426
      2.01000000	     -8.88846544	      0.64923015	      3.78782476	      0.24902757	      0.91732916	     -0.00275574	      7.54162671	     -6.96328515	     -8.44086487	      2.06207761	      0.03599004	      0.61343851	     -7.85702966	     -7.49999987	      6.64198549	     -5.05592449	    -17.26975914	      0.83125353	      0.01450811	      1.43744889	      4.97795304	     -7.49999987	      1.01314903	      1.46761272	      0.51509601	    -18.02902980	    -10.80430701	    -14.93197003	    131.33584798	     78.91884376	    165.29828567	   -171.32597262	   -181.88388390	    115.37010763	     81.60921758
      2.01166670	     -8.86619321	      0.65412220	      3.76327946	      0.24892327	      0.91782870	     -0.00494549	      7.46077165	     -6.97764144	     -8.64533322	      1.95338767	      0.03409305	      0.59253507	     -7.58640964	     -7.49999987	      6.60757830	     -5.02909363	    -17.33132541	      0.79627739	      0.01389766	      1.30415191	      5.09097045	     -7.49999987	      0.91435429	      1.43208002	      0.44038742	    -18.14499454	    -10.80559765	    -14.85405456	    130.92702990	     79.01683965	    165.15161157	   -171.48433639	   -182.13516274	    114.69360765	     81.35348449
